<svg width="39" height="40" fill="none" xmlns="http://www.w3.org/2000/svg"><path class="prefix__alarm_stroke" opacity=".5" d="M9.3 4.84a11.112 11.112 0 00-4.323 4.325M8.831 1A11.375 11.375 0 001 8.833" stroke="#595959" stroke-width="2" stroke-linecap="round" stroke-linejoin="round"/><mask id="prefix__a" maskUnits="userSpaceOnUse" x="3.25" y="5.006" width="33" height="28" fill="#000"><path fill="#fff" d="M3.25 5.006h33v28h-33z"/><path fill-rule="evenodd" clip-rule="evenodd" d="M6.998 28.875H6.25a1 1 0 100 2H32.5a1 1 0 100-2h-.742c-.776-1.332-1.883-4.166-1.883-9.5 0-6.563-4.483-12.37-10.5-12.37s-10.5 5.807-10.5 12.37c0 5.349-1.101 8.173-1.877 9.5z"/></mask><path class="prefix__alarm_fill" fill-rule="evenodd" clip-rule="evenodd" d="M6.998 28.875H6.25a1 1 0 100 2H32.5a1 1 0 100-2h-.742c-.776-1.332-1.883-4.166-1.883-9.5 0-6.563-4.483-12.37-10.5-12.37s-10.5 5.807-10.5 12.37c0 5.349-1.101 8.173-1.877 9.5z" fill="#fff"/><path class="prefix__alarm_fill_2" d="M6.998 28.875v2a2 2 0 001.726-.99l-1.726-1.01zm24.76 0l-1.728 1.007a2 2 0 001.728.993v-2zm-25.508 2h.748v-4H6.25v4zm1-1a1 1 0 01-1 1v-4a3 3 0 00-3 3h4zm-1-1a1 1 0 011 1h-4a3 3 0 003 3v-4zm26.25 0H6.25v4H32.5v-4zm-1 1a1 1 0 011-1v4a3 3 0 003-3h-4zm1 1a1 1 0 01-1-1h4a3 3 0 00-3-3v4zm-.742 0h.742v-4h-.742v4zm1.728-3.007c-.563-.967-1.611-3.437-1.611-8.493h-4c0 5.613 1.166 8.81 2.155 10.507l3.456-2.014zm-1.611-8.493c0-7.289-5.035-14.37-12.5-14.37v4c4.568 0 8.5 4.533 8.5 10.37h4zm-12.5-14.37c-7.465 0-12.5 7.081-12.5 14.37h4c0-5.837 3.932-10.37 8.5-10.37v-4zm-12.5 14.37c0 5.074-1.043 7.532-1.603 8.49l3.452 2.02c.992-1.695 2.151-4.886 2.151-10.51h-4z" fill="#DD7F4A" mask="url(#prefix__a)"/><path class="prefix__alarm_stroke" d="M22 36.125a2.625 2.625 0 01-5.25 0M19.375 5.006V1.625" stroke="#DD7F4A" stroke-width="2" stroke-linecap="round" stroke-linejoin="round"/><path class="prefix__alarm_stroke" opacity=".5" d="M29.45 4.84c.903.504 1.732 1.13 2.464 1.86.73.731 1.356 1.56 1.859 2.465M29.919 1a11.375 11.375 0 017.831 7.833" stroke="#595959" stroke-width="2" stroke-linecap="round" stroke-linejoin="round"/></svg>