<svg width="50" height="50" viewBox="0 0 50 50" fill="none" xmlns="http://www.w3.org/2000/svg">
<path d="M39.729 45.397H10.8545C10.7691 45.397 10.6846 45.3802 10.6058 45.3475C10.5269 45.3149 10.4552 45.267 10.3949 45.2066C10.3345 45.1463 10.2866 45.0746 10.254 44.9958C10.2213 44.9169 10.2045 44.8324 10.2045 44.747V7.05002C10.2045 6.87763 10.273 6.7123 10.3949 6.59041C10.5168 6.46851 10.6821 6.40002 10.8545 6.40002H39.729C39.9014 6.40002 40.0667 6.46851 40.1886 6.59041C40.3105 6.7123 40.379 6.87763 40.379 7.05002V44.747C40.379 44.8324 40.3622 44.9169 40.3295 44.9958C40.2968 45.0746 40.249 45.1463 40.1886 45.2066C40.1282 45.267 40.0566 45.3149 39.9777 45.3475C39.8989 45.3802 39.8143 45.397 39.729 45.397ZM11.5045 44.097H39.079V7.93852C39.079 7.87527 39.0539 7.81461 39.0091 7.76988C38.9644 7.72515 38.9037 7.70002 38.8405 7.70002H11.743C11.6797 7.70002 11.6191 7.72515 11.5744 7.76988C11.5296 7.81461 11.5045 7.87527 11.5045 7.93852V44.097Z" fill="currentColor"/>
<path d="M42.937 44.0891H7.64649C7.28751 44.0891 6.99649 44.3801 6.99649 44.7391V44.7546C6.99649 45.1136 7.28751 45.4046 7.64649 45.4046H42.937C43.296 45.4046 43.587 45.1136 43.587 44.7546V44.7391C43.587 44.3801 43.296 44.0891 42.937 44.0891Z" fill="currentColor"/>
<path d="M18.875 16.5225H14.865C14.6926 16.5225 14.5273 16.454 14.4054 16.3321C14.2835 16.2102 14.215 16.0449 14.215 15.8725V11.8625C14.215 11.6901 14.2835 11.5248 14.4054 11.4029C14.5273 11.281 14.6926 11.2125 14.865 11.2125H18.875C19.0474 11.2125 19.2127 11.281 19.3346 11.4029C19.4565 11.5248 19.525 11.6901 19.525 11.8625V15.8725C19.525 16.0449 19.4565 16.2102 19.3346 16.3321C19.2127 16.454 19.0474 16.5225 18.875 16.5225ZM15.515 15.2225H18.225V12.5125H15.515V15.2225Z" fill="currentColor"/>
<path d="M26.896 16.5225H22.8855C22.7131 16.5225 22.5478 16.454 22.4259 16.3321C22.304 16.2102 22.2355 16.0449 22.2355 15.8725V11.8625C22.2355 11.6901 22.304 11.5248 22.4259 11.4029C22.5478 11.281 22.7131 11.2125 22.8855 11.2125H26.896C27.0684 11.2125 27.2337 11.281 27.3556 11.4029C27.4775 11.5248 27.546 11.6901 27.546 11.8625V15.8725C27.546 16.0449 27.4775 16.2102 27.3556 16.3321C27.2337 16.454 27.0684 16.5225 26.896 16.5225ZM23.5355 15.2225H26.246V12.5125H23.5355V15.2225Z" fill="currentColor"/>
<path d="M34.9165 16.5225H30.906C30.7336 16.5225 30.5683 16.454 30.4464 16.3321C30.3245 16.2102 30.256 16.0449 30.256 15.8725V11.8625C30.256 11.6901 30.3245 11.5248 30.4464 11.4029C30.5683 11.281 30.7336 11.2125 30.906 11.2125H34.9165C35.0019 11.2125 35.0864 11.2293 35.1652 11.262C35.2441 11.2947 35.3158 11.3425 35.3761 11.4029C35.4365 11.4633 35.4844 11.5349 35.517 11.6138C35.5497 11.6926 35.5665 11.7772 35.5665 11.8625V15.8725C35.5665 15.9579 35.5497 16.0424 35.517 16.1213C35.4844 16.2001 35.4365 16.2718 35.3761 16.3321C35.3158 16.3925 35.2441 16.4404 35.1652 16.473C35.0864 16.5057 35.0019 16.5225 34.9165 16.5225ZM31.556 15.2225H34.2665V12.5125H31.556V15.2225Z" fill="currentColor"/>
<path d="M18.875 32.564H14.865C14.6926 32.564 14.5273 32.4955 14.4054 32.3736C14.2835 32.2517 14.215 32.0864 14.215 31.914V27.9035C14.215 27.7311 14.2835 27.5658 14.4054 27.4439C14.5273 27.322 14.6926 27.2535 14.865 27.2535H18.875C19.0474 27.2535 19.2127 27.322 19.3346 27.4439C19.4565 27.5658 19.525 27.7311 19.525 27.9035V31.914C19.525 32.0864 19.4565 32.2517 19.3346 32.3736C19.2127 32.4955 19.0474 32.564 18.875 32.564ZM15.515 31.264H18.225V28.5535H15.515V31.264Z" fill="currentColor"/>
<path d="M26.896 32.564H22.8855C22.7131 32.564 22.5478 32.4955 22.4259 32.3736C22.304 32.2517 22.2355 32.0864 22.2355 31.914V27.9035C22.2355 27.7311 22.304 27.5658 22.4259 27.4439C22.5478 27.322 22.7131 27.2535 22.8855 27.2535H26.896C27.0684 27.2535 27.2337 27.322 27.3556 27.4439C27.4775 27.5658 27.546 27.7311 27.546 27.9035V31.914C27.546 32.0864 27.4775 32.2517 27.3556 32.3736C27.2337 32.4955 27.0684 32.564 26.896 32.564ZM23.5355 31.264H26.246V28.5535H23.5355V31.264Z" fill="currentColor"/>
<path d="M34.9165 32.564H30.906C30.7336 32.564 30.5683 32.4955 30.4464 32.3736C30.3245 32.2517 30.256 32.0864 30.256 31.914V27.9035C30.256 27.7311 30.3245 27.5658 30.4464 27.4439C30.5683 27.322 30.7336 27.2535 30.906 27.2535H34.9165C35.0019 27.2535 35.0864 27.2703 35.1652 27.303C35.2441 27.3356 35.3158 27.3835 35.3761 27.4439C35.4365 27.5042 35.4844 27.5759 35.517 27.6547C35.5497 27.7336 35.5665 27.8181 35.5665 27.9035V31.914C35.5665 31.9993 35.5497 32.0839 35.517 32.1627C35.4844 32.2416 35.4365 32.3132 35.3761 32.3736C35.3158 32.434 35.2441 32.4818 35.1652 32.5145C35.0864 32.5472 35.0019 32.564 34.9165 32.564ZM31.556 31.264H34.2665V28.5535H31.556V31.264Z" fill="currentColor"/>
<path d="M18.875 24.5435H14.865C14.6926 24.5435 14.5273 24.475 14.4054 24.3531C14.2835 24.2312 14.215 24.0659 14.215 23.8935V19.883C14.215 19.7106 14.2835 19.5453 14.4054 19.4234C14.5273 19.3015 14.6926 19.233 14.865 19.233H18.875C19.0474 19.233 19.2127 19.3015 19.3346 19.4234C19.4565 19.5453 19.525 19.7106 19.525 19.883V23.8935C19.525 24.0659 19.4565 24.2312 19.3346 24.3531C19.2127 24.475 19.0474 24.5435 18.875 24.5435ZM15.515 23.2435H18.225V20.533H15.515V23.2435Z" fill="currentColor"/>
<path d="M26.896 24.5435H22.8855C22.7131 24.5435 22.5478 24.475 22.4259 24.3531C22.304 24.2312 22.2355 24.0659 22.2355 23.8935V19.883C22.2355 19.7106 22.304 19.5453 22.4259 19.4234C22.5478 19.3015 22.7131 19.233 22.8855 19.233H26.896C27.0684 19.233 27.2337 19.3015 27.3556 19.4234C27.4775 19.5453 27.546 19.7106 27.546 19.883V23.8935C27.546 24.0659 27.4775 24.2312 27.3556 24.3531C27.2337 24.475 27.0684 24.5435 26.896 24.5435ZM23.5355 23.2435H26.246V20.533H23.5355V23.2435Z" fill="currentColor"/>
<path d="M34.9165 24.5435H30.906C30.7336 24.5435 30.5683 24.475 30.4464 24.3531C30.3245 24.2312 30.256 24.0659 30.256 23.8935V19.883C30.256 19.7106 30.3245 19.5453 30.4464 19.4234C30.5683 19.3015 30.7336 19.233 30.906 19.233H34.9165C35.0019 19.233 35.0864 19.2498 35.1652 19.2824C35.2441 19.3151 35.3158 19.363 35.3761 19.4234C35.4365 19.4837 35.4844 19.5554 35.517 19.6342C35.5497 19.7131 35.5665 19.7976 35.5665 19.883V23.8935C35.5665 23.9788 35.5497 24.0634 35.517 24.1422C35.4844 24.2211 35.4365 24.2927 35.3761 24.3531C35.3158 24.4134 35.2441 24.4613 35.1652 24.494C35.0864 24.5267 35.0019 24.5435 34.9165 24.5435ZM31.556 23.2435H34.2665V20.533H31.556V23.2435Z" fill="currentColor"/>
<path d="M28.0275 45.397H21.6C21.3125 45.397 21.0795 45.106 21.0795 44.747V36.7265C21.0795 36.3675 21.3125 36.0765 21.6 36.0765H28.0275C28.315 36.0765 28.5485 36.3675 28.5485 36.7265V44.747C28.55 45.106 28.315 45.397 28.0275 45.397ZM22.123 44.097H27.507V37.3645C27.5069 37.3013 27.4817 37.2408 27.437 37.1962C27.3923 37.1515 27.3317 37.1265 27.2685 37.1265H22.361C22.2979 37.1265 22.2373 37.1516 22.1927 37.1962C22.1481 37.2408 22.123 37.3014 22.123 37.3645V44.097Z" fill="currentColor"/>
</svg>
