<svg width="24" height="24" viewBox="0 0 24 24" fill="none" xmlns="http://www.w3.org/2000/svg">
<path d="M11.9998 15.1998C12.8485 15.1998 13.6624 14.8627 14.2625 14.2625C14.8627 13.6624 15.1998 12.8485 15.1998 11.9998C15.1998 11.1511 14.8627 10.3372 14.2625 9.73706C13.6624 9.13695 12.8485 8.7998 11.9998 8.7998C11.1511 8.7998 10.3372 9.13695 9.73706 9.73706C9.13695 10.3372 8.7998 11.1511 8.7998 11.9998C8.7998 12.8485 9.13695 13.6624 9.73706 14.2625C10.3372 14.8627 11.1511 15.1998 11.9998 15.1998Z" fill="#595959"/>
<path d="M9 2L7.17 4H4C2.9 4 2 4.9 2 6V18C2 19.1 2.9 20 4 20H20C21.1 20 22 19.1 22 18V6C22 4.9 21.1 4 20 4H16.83L15 2H9ZM12 17C9.24 17 7 14.76 7 12C7 9.24 9.24 7 12 7C14.76 7 17 9.24 17 12C17 14.76 14.76 17 12 17Z" fill="#595959"/>
</svg>
