<svg width="50" height="50" viewBox="0 0 50 50" fill="none" xmlns="http://www.w3.org/2000/svg">
<path d="M25.7155 40.75H23.1465C22.9476 40.75 22.7568 40.671 22.6162 40.5303C22.4755 40.3897 22.3965 40.1989 22.3965 40C22.3965 39.8011 22.4755 39.6103 22.6162 39.4697C22.7568 39.329 22.9476 39.25 23.1465 39.25H25.7155C25.9144 39.25 26.1052 39.329 26.2458 39.4697C26.3865 39.6103 26.4655 39.8011 26.4655 40C26.4655 40.1989 26.3865 40.3897 26.2458 40.5303C26.1052 40.671 25.9144 40.75 25.7155 40.75Z" fill="currentColor"/>
<path d="M30.463 30.531C30.2641 30.531 30.0733 30.452 29.9327 30.3113C29.792 30.1707 29.713 29.9799 29.713 29.781V11.3435H23.1465C22.9476 11.3435 22.7568 11.2645 22.6162 11.1238C22.4755 10.9832 22.3965 10.7924 22.3965 10.5935C22.3965 10.3946 22.4755 10.2038 22.6162 10.0632C22.7568 9.92252 22.9476 9.84351 23.1465 9.84351H29.83C30.5925 9.84351 31.213 10.4985 31.213 11.304V29.781C31.213 29.9799 31.134 30.1707 30.9933 30.3113C30.8527 30.452 30.6619 30.531 30.463 30.531Z" fill="currentColor"/>
<path d="M10.8925 40.75H10.589C9.82649 40.75 9.20599 40.094 9.20599 39.2875V11.304C9.20599 11.1051 9.28501 10.9143 9.42566 10.7737C9.56632 10.633 9.75708 10.554 9.95599 10.554C10.1549 10.554 10.3457 10.633 10.4863 10.7737C10.627 10.9143 10.706 11.1051 10.706 11.304V39.25H10.8925C11.0914 39.25 11.2822 39.329 11.4228 39.4697C11.5635 39.6103 11.6425 39.8011 11.6425 40C11.6425 40.1989 11.5635 40.3897 11.4228 40.5303C11.2822 40.671 11.0914 40.75 10.8925 40.75Z" fill="currentColor"/>
<path d="M22.514 43.0811C22.4267 43.0811 22.3396 43.0724 22.254 43.0551L10.3285 40.6501C9.67851 40.5191 9.20551 39.9156 9.20551 39.2151V10.6826C9.20551 9.98607 9.675 9.38257 10.3215 9.24907L22.247 6.77757C22.4411 6.73776 22.6417 6.74189 22.834 6.78964C23.0263 6.8374 23.2055 6.92758 23.3585 7.05357C23.5288 7.19418 23.6656 7.37109 23.7588 7.57136C23.8519 7.77163 23.8992 7.99019 23.897 8.21107V41.6206C23.8991 41.8408 23.8522 42.0587 23.7595 42.2585C23.6669 42.4583 23.5309 42.6349 23.3615 42.7756C23.1228 42.9723 22.8233 43.0802 22.514 43.0811ZM10.7055 39.2001L22.397 41.5561V8.27857L10.7055 10.7001V39.2001Z" fill="currentColor"/>
<path d="M39.66 43.65H29.4185C28.9852 43.6496 28.5698 43.4773 28.2633 43.171C27.9569 42.8647 27.7845 42.4493 27.784 42.016V33.571C27.7845 33.1377 27.9569 32.7222 28.2633 32.4158C28.5697 32.1094 28.9852 31.937 29.4185 31.9365H39.66C40.0933 31.937 40.5088 32.1094 40.8152 32.4158C41.1216 32.7222 41.294 33.1377 41.2945 33.571V42.016C41.2938 42.4492 41.1214 42.8645 40.815 43.1709C40.5086 43.4772 40.0932 43.6495 39.66 43.65ZM29.4185 33.4365C29.3829 33.4366 29.3487 33.4508 29.3235 33.476C29.2983 33.5012 29.2841 33.5354 29.284 33.571V42.016C29.2841 42.0516 29.2984 42.0857 29.3236 42.1108C29.3488 42.1359 29.3829 42.15 29.4185 42.15H39.66C39.6956 42.15 39.7297 42.1359 39.7549 42.1108C39.7801 42.0857 39.7944 42.0516 39.7945 42.016V33.571C39.7944 33.5354 39.7802 33.5012 39.755 33.476C39.7298 33.4508 39.6956 33.4366 39.66 33.4365H29.4185Z" fill="currentColor"/>
<path d="M35.8575 36.771H33.221C33.0221 36.771 32.8313 36.692 32.6907 36.5513C32.55 36.4107 32.471 36.2199 32.471 36.021V32.6915C32.471 32.4926 32.55 32.3018 32.6907 32.1612C32.8313 32.0205 33.0221 31.9415 33.221 31.9415H35.8575C36.0564 31.9415 36.2472 32.0205 36.3878 32.1612C36.5285 32.3018 36.6075 32.4926 36.6075 32.6915V36.021C36.6075 36.2199 36.5285 36.4107 36.3878 36.5513C36.2472 36.692 36.0564 36.771 35.8575 36.771ZM33.971 35.271H35.1075V33.4415H33.971V35.271Z" fill="currentColor"/>
<path d="M38.397 39.5859H35.748C35.5575 39.5859 35.403 39.7404 35.403 39.9309V40.8609C35.403 41.0515 35.5575 41.2059 35.748 41.2059H38.397C38.5875 41.2059 38.742 41.0515 38.742 40.8609V39.9309C38.742 39.7404 38.5875 39.5859 38.397 39.5859Z" fill="currentColor"/>
<path d="M20.1165 27.7766H18.54C18.3411 27.7766 18.1503 27.6976 18.0097 27.5569C17.869 27.4163 17.79 27.2255 17.79 27.0266C17.79 26.8277 17.869 26.6369 18.0097 26.4963C18.1503 26.3556 18.3411 26.2766 18.54 26.2766H20.1165C20.3154 26.2766 20.5062 26.3556 20.6468 26.4963C20.7875 26.6369 20.8665 26.8277 20.8665 27.0266C20.8665 27.2255 20.7875 27.4163 20.6468 27.5569C20.5062 27.6976 20.3154 27.7766 20.1165 27.7766Z" fill="currentColor"/>
</svg>
