<svg width="50" height="50" viewBox="0 0 50 50" fill="none" xmlns="http://www.w3.org/2000/svg">
<path d="M39.613 43.25H10.387C10.1881 43.25 9.99735 43.171 9.85669 43.0303C9.71604 42.8897 9.63702 42.6989 9.63702 42.5C9.63702 42.3011 9.71604 42.1103 9.85669 41.9697C9.99735 41.829 10.1881 41.75 10.387 41.75H39.613C39.8119 41.75 40.0027 41.829 40.1434 41.9697C40.284 42.1103 40.363 42.3011 40.363 42.5C40.363 42.6989 40.284 42.8897 40.1434 43.0303C40.0027 43.171 39.8119 43.25 39.613 43.25Z" fill="currentColor"/>
<path d="M15.3 43.25C15.1011 43.25 14.9103 43.171 14.7697 43.0303C14.629 42.8897 14.55 42.6989 14.55 42.5V8.6725C14.55 7.6125 15.367 6.75 16.371 6.75H33.6295C34.6335 6.75 35.4505 7.6125 35.4505 8.6725V30.568C35.4505 30.7669 35.3715 30.9577 35.2308 31.0983C35.0902 31.239 34.8994 31.318 34.7005 31.318C34.5016 31.318 34.3108 31.239 34.1702 31.0983C34.0295 30.9577 33.9505 30.7669 33.9505 30.568V8.6725C33.9505 8.4435 33.8035 8.25 33.6295 8.25H16.3705C16.1965 8.25 16.0495 8.4435 16.0495 8.6725V42.5C16.0495 42.6988 15.9705 42.8895 15.83 43.0302C15.6895 43.1708 15.4988 43.2499 15.3 43.25Z" fill="currentColor"/>
<path d="M30.1625 27.611H28.1315C27.9326 27.611 27.7418 27.532 27.6011 27.3913C27.4605 27.2507 27.3815 27.0599 27.3815 26.861C27.3815 26.6621 27.4605 26.4713 27.6011 26.3307C27.7418 26.19 27.9326 26.111 28.1315 26.111H30.1625C30.3614 26.111 30.5521 26.19 30.6928 26.3307C30.8335 26.4713 30.9125 26.6621 30.9125 26.861C30.9125 27.0599 30.8335 27.2507 30.6928 27.3913C30.5521 27.532 30.3614 27.611 30.1625 27.611Z" fill="currentColor"/>
<path d="M38.0085 43.25H24.192C23.9931 43.25 23.8023 43.171 23.6617 43.0303C23.521 42.8897 23.442 42.6989 23.442 42.5V31.706C23.4425 31.2041 23.6421 30.7228 23.997 30.3679C24.3519 30.0129 24.8331 29.8132 25.335 29.8125H36.8655C37.3675 29.8132 37.8486 30.0129 38.2035 30.3679C38.5584 30.7228 38.758 31.2041 38.7585 31.706V42.5C38.7585 42.6989 38.6795 42.8897 38.5388 43.0303C38.3982 43.171 38.2074 43.25 38.0085 43.25ZM24.942 41.75H37.2585V31.706C37.2584 31.6018 37.217 31.5018 37.1433 31.4281C37.0696 31.3543 36.9698 31.3128 36.8655 31.3125H25.335C25.2308 31.3128 25.1309 31.3543 25.0572 31.4281C24.9836 31.5018 24.9421 31.6018 24.942 31.706V41.75Z" fill="currentColor"/>
<path d="M32.617 35.2101H29.5835C29.3846 35.2101 29.1938 35.1311 29.0532 34.9904C28.9125 34.8498 28.8335 34.659 28.8335 34.4601V30.5681C28.8335 30.3692 28.9125 30.1784 29.0532 30.0378C29.1938 29.8971 29.3846 29.8181 29.5835 29.8181H32.617C32.8159 29.8181 33.0067 29.8971 33.1473 30.0378C33.288 30.1784 33.367 30.3692 33.367 30.5681V34.4601C33.367 34.659 33.288 34.8498 33.1473 34.9904C33.0067 35.1311 32.8159 35.2101 32.617 35.2101ZM30.3335 33.7101H31.867V31.3181H30.3335V33.7101Z" fill="currentColor"/>
<path d="M35.5345 38.6265H32.4935C32.2726 38.6265 32.0935 38.8056 32.0935 39.0265V40.1195C32.0935 40.3404 32.2726 40.5195 32.4935 40.5195H35.5345C35.7554 40.5195 35.9345 40.3404 35.9345 40.1195V39.0265C35.9345 38.8056 35.7554 38.6265 35.5345 38.6265Z" fill="currentColor"/>
</svg>
