<svg width="175" height="142" viewBox="0 0 175 142" fill="none" xmlns="http://www.w3.org/2000/svg">
<path d="M172.8 113H69.8003H41.8003H29.2003C28.648 113 28.2003 113.448 28.2003 114L28.2002 122C28.2002 122.552 27.7525 123 27.2002 123H15.6002C15.0479 123 14.6002 123.448 14.6002 124L14.6 131.5C14.6 132.052 14.1523 132.5 13.6 132.5H2C1.44772 132.5 1 132.948 1 133.5V139.5C1 140.052 1.44772 140.5 2 140.5H172.8C173.353 140.5 173.8 140.052 173.8 139.5V114C173.8 113.448 173.353 113 172.8 113Z" fill="#EFEFEF" stroke="#DADADA" stroke-width="2"/>
<path d="M44.7998 8C44.7998 7.44771 45.2475 7 45.7998 7H103.8C104.352 7 104.8 7.44772 104.8 8V113H44.7998V8Z" stroke="#DADADA" stroke-width="2"/>
<path d="M109.8 112.052V6C109.8 3.79086 108.009 2 105.8 2H43.7998C41.5907 2 39.7998 3.79086 39.7998 6V112" stroke="#595959" stroke-width="3"/>
<path d="M153.8 112V88C153.8 86.8954 152.904 86 151.8 86H119.8C118.695 86 117.8 86.8954 117.8 88V112" stroke="#595959" stroke-width="3"/>
<rect x="129.8" y="87.5" width="12" height="7" fill="#FFAA8A"/>
<rect x="55.7998" y="64" width="38" height="10" rx="2" fill="#EFEFEF"/>
<rect x="61.7998" y="68" width="26" height="2" rx="1" fill="#595959"/>
</svg>
