<svg width="42" height="42" fill="none" xmlns="http://www.w3.org/2000/svg"><path d="M8.733 1h22.534A1.733 1.733 0 0133 2.733V40H7V2.733A1.733 1.733 0 018.733 1z" stroke="#DADADA" stroke-width="2" stroke-linecap="round" stroke-linejoin="round"/><path class="prefix__door_delivery_fill" fill-rule="evenodd" clip-rule="evenodd" d="M27.563 19.344a1.656 1.656 0 110 3.311 1.656 1.656 0 010-3.311z" fill="#DADADA"/><path class="prefix__door_delivery_fill_2" d="M21 27a1 1 0 011-1h16a1 1 0 011 1v13H21V27z" fill="#FAEFE8" stroke="#242424" stroke-width="2"/><path d="M31.503 32h-3.334a.883.883 0 01-.589-.22.714.714 0 01-.244-.53V26h5v5.25c0 .199-.088.39-.244.53a.883.883 0 01-.59.22z" fill="#DD7F4A" stroke="#242424" stroke-width="2" stroke-linecap="round" stroke-linejoin="round"/></svg>