<svg width="113" height="128" viewBox="0 0 113 128" fill="none" xmlns="http://www.w3.org/2000/svg">
<rect x="1" y="1" width="67" height="126" rx="1" fill="white" stroke="#595959" stroke-width="2"/>
<path d="M6.5 8C6.5 7.17157 7.17157 6.5 8 6.5H61C61.8284 6.5 62.5 7.17157 62.5 8V126.5H6.5V8Z" fill="#F8DCCC" stroke="#595959"/>
<line x1="47" y1="71" x2="56" y2="71" stroke="#595959" stroke-width="2" stroke-linecap="round"/>
<rect x="19" y="88" width="30" height="8" rx="2" fill="#595959"/>
<line x1="25" y1="92" x2="29" y2="92" stroke="white" stroke-width="2" stroke-linecap="round"/>
<line x1="33" y1="92" x2="43" y2="92" stroke="white" stroke-width="2" stroke-linecap="round"/>
<path d="M84 62H110V90.3943C110 90.7288 109.729 91 109.394 91H84.6057C84.2712 91 84 90.7288 84 90.3943V62Z" fill="#F8DCCC" stroke="#595959" stroke-width="2"/>
<path d="M82.7727 56.2624C82.793 56.1121 82.9212 56 83.0729 56H110.927C111.079 56 111.207 56.1121 111.227 56.2624L111.954 61.6567C111.978 61.8384 111.837 62 111.654 62H82.3464C82.163 62 82.0218 61.8384 82.0462 61.6567L82.7727 56.2624Z" fill="white" stroke="#595959" stroke-width="2"/>
<line x1="89" y1="75" x2="92" y2="75" stroke="#242424" stroke-width="2" stroke-linecap="round"/>
<line x1="96" y1="75" x2="104" y2="75" stroke="#242424" stroke-width="2" stroke-linecap="round"/>
<path d="M82 62H112V65C112 65.5523 111.552 66 111 66H83C82.4477 66 82 65.5523 82 65V62Z" fill="#FAEFE8" stroke="#595959" stroke-width="2"/>
</svg>
