<svg width="50" height="50" viewBox="0 0 50 50" fill="none" xmlns="http://www.w3.org/2000/svg">
<path d="M42.497 30.9755C42.1452 30.9755 41.8062 30.8434 41.547 30.6055L25.0785 15.3711C25.058 15.3532 25.0317 15.3435 25.0045 15.344C24.9773 15.3444 24.9513 15.355 24.9315 15.3736L8.471 30.6025C8.20309 30.8491 7.85018 30.9825 7.48615 30.9748C7.12212 30.9671 6.77519 30.8188 6.518 30.561L5.3 29.3405C5.16727 29.2078 5.06234 29.05 4.99135 28.8763C4.92036 28.7025 4.88472 28.5164 4.88654 28.3287C4.88836 28.141 4.92758 27.9556 5.00192 27.7833C5.07627 27.6109 5.18423 27.4552 5.3195 27.325L24.028 9.33356C24.2905 9.07982 24.6414 8.93799 25.0065 8.93799C25.3716 8.93799 25.7225 9.07982 25.985 9.33356L31.21 14.3576V12.3406C31.21 12.1682 31.2785 12.0028 31.4004 11.8809C31.5223 11.759 31.6876 11.6906 31.86 11.6906H37.95C38.1224 11.6906 38.2877 11.759 38.4096 11.8809C38.5315 12.0028 38.6 12.1682 38.6 12.3406V21.4651L44.696 27.325C44.8312 27.4552 44.9392 27.6109 45.0135 27.7832C45.0879 27.9555 45.1271 28.1409 45.129 28.3286C45.1308 28.5163 45.0953 28.7024 45.0244 28.8762C44.9535 29.0499 44.8486 29.2078 44.716 29.3405L43.495 30.561C43.3642 30.6925 43.2087 30.7969 43.0374 30.868C42.8661 30.9391 42.6825 30.9757 42.497 30.9755ZM25.0075 14.0426C25.3594 14.0431 25.6983 14.1755 25.9575 14.4136L42.425 29.65C42.4462 29.6681 42.4734 29.6774 42.5013 29.6762C42.5291 29.675 42.5554 29.6633 42.575 29.6435L43.7955 28.423C43.8062 28.4127 43.8147 28.4003 43.8205 28.3866C43.8263 28.3729 43.8293 28.3582 43.8293 28.3433C43.8293 28.3284 43.8263 28.3137 43.8205 28.3C43.8147 28.2863 43.8062 28.2739 43.7955 28.2635L37.5 22.2106C37.4368 22.15 37.3866 22.0772 37.3522 21.9967C37.3178 21.9162 37.3001 21.8296 37.3 21.7421V12.9921H32.51V15.8856C32.51 16.013 32.4725 16.1376 32.4023 16.2439C32.3321 16.3502 32.2321 16.4335 32.1149 16.4834C31.9977 16.5334 31.8684 16.5478 31.7431 16.5249C31.6178 16.502 31.5019 16.4428 31.41 16.3546L25.084 10.2706C25.0632 10.2506 25.0355 10.2395 25.0067 10.2395C24.9779 10.2395 24.9503 10.2506 24.9295 10.2706L6.218 28.262C6.20749 28.2725 6.19916 28.2849 6.19347 28.2986C6.18778 28.3123 6.18485 28.327 6.18485 28.3418C6.18485 28.3566 6.18778 28.3713 6.19347 28.385C6.19916 28.3987 6.20749 28.4111 6.218 28.4215L7.439 29.642C7.45923 29.6624 7.48658 29.6742 7.51529 29.6749C7.54401 29.6755 7.57187 29.665 7.593 29.6455L24.05 14.4166C24.311 14.1763 24.6527 14.0428 25.0075 14.0426Z" fill="currentColor"/>
<path d="M40.2365 45.2684H9.7765C9.6041 45.2684 9.43877 45.1999 9.31688 45.078C9.19498 44.9561 9.1265 44.7908 9.1265 44.6184V28.5304C9.1265 28.4408 9.14503 28.3522 9.18091 28.2701C9.21679 28.188 9.26925 28.1142 9.335 28.0534L24.05 14.4169C24.3092 14.1767 24.6494 14.0429 25.0028 14.0422C25.3562 14.0416 25.6969 14.1741 25.957 14.4134L25.9605 14.4169L40.678 28.0534C40.7437 28.1142 40.7962 28.188 40.8321 28.2701C40.868 28.3522 40.8865 28.4408 40.8865 28.5304V44.6184C40.8865 44.7908 40.818 44.9561 40.6961 45.078C40.5742 45.1999 40.4089 45.2684 40.2365 45.2684ZM10.4265 43.9684H39.5865V28.8144L25.081 15.3729C25.0605 15.3541 25.0338 15.3437 25.006 15.3437C24.9782 15.3437 24.9515 15.3541 24.931 15.3729L10.4265 28.8144V43.9684Z" fill="currentColor"/>
<path d="M25.818 42.023H17.7045C17.6191 42.023 17.5346 42.0062 17.4558 41.9735C17.3769 41.9409 17.3052 41.893 17.2449 41.8326C17.1845 41.7723 17.1366 41.7006 17.104 41.6218C17.0713 41.5429 17.0545 41.4584 17.0545 41.373V29.608C17.0545 29.4356 17.123 29.2703 17.2449 29.1484C17.3668 29.0265 17.5321 28.958 17.7045 28.958H25.818C25.9904 28.958 26.1557 29.0265 26.2776 29.1484C26.3995 29.2703 26.468 29.4356 26.468 29.608V41.373C26.468 41.4584 26.4512 41.5429 26.4185 41.6218C26.3859 41.7006 26.338 41.7723 26.2776 41.8326C26.2173 41.893 26.1456 41.9409 26.0667 41.9735C25.9879 42.0062 25.9034 42.023 25.818 42.023ZM18.3545 40.723H25.168V30.258H18.3545V40.723Z" fill="currentColor"/>
<path d="M34.743 35.9375H29.8745C29.7021 35.9375 29.5368 35.869 29.4149 35.7471C29.293 35.6252 29.2245 35.4599 29.2245 35.2875V29.608C29.2245 29.4356 29.293 29.2703 29.4149 29.1484C29.5368 29.0265 29.7021 28.958 29.8745 28.958H34.743C34.9154 28.958 35.0807 29.0265 35.2026 29.1484C35.3245 29.2703 35.393 29.4356 35.393 29.608V35.2875C35.393 35.4599 35.3245 35.6252 35.2026 35.7471C35.0807 35.869 34.9154 35.9375 34.743 35.9375ZM30.5245 34.6375H34.093V30.258H30.5245V34.6375Z" fill="currentColor"/>
<path d="M28.25 45.2684H15.27C15.0976 45.2684 14.9323 45.1999 14.8104 45.078C14.6885 44.9561 14.62 44.7908 14.62 44.6184V41.3729C14.62 41.2005 14.6885 41.0352 14.8104 40.9133C14.9323 40.7914 15.0976 40.7229 15.27 40.7229H28.25C28.4224 40.7229 28.5877 40.7914 28.7096 40.9133C28.8315 41.0352 28.9 41.2005 28.9 41.3729V44.6184C28.9 44.7908 28.8315 44.9561 28.7096 45.078C28.5877 45.1999 28.4224 45.2684 28.25 45.2684ZM15.918 43.9684H27.6V42.0229H15.92L15.918 43.9684Z" fill="currentColor"/>
</svg>
