<svg width="50" height="50" viewBox="0 0 50 50" fill="none" xmlns="http://www.w3.org/2000/svg">
<path d="M24.615 44.9036C22.436 44.9036 20.6675 43.6081 20.59 41.4306L20.5735 40.9701C20.439 37.2031 19.23 33.5076 17.0775 30.2846C15.8595 28.4606 15.345 26.3301 15.5905 24.1241C16.0605 19.8881 19.476 16.4741 23.7115 16.0026C25.0046 15.8542 26.3145 15.9808 27.5553 16.3741C28.7961 16.7675 29.9397 17.4186 30.9112 18.2849C31.8826 19.1512 32.66 20.213 33.1923 21.4008C33.7247 22.5886 33.9999 23.8755 34 25.1771C34.0031 27.0616 33.425 28.9012 32.3445 30.4451C30.061 33.7176 28.78 37.5161 28.64 41.4306C28.562 43.6081 26.794 44.9036 24.615 44.9036ZM24.774 17.3811C24.472 17.3812 24.1702 17.3979 23.87 17.4311C20.297 17.8276 17.416 20.7091 17.02 24.2811C16.8115 26.1501 17.245 27.9501 18.2725 29.4866C20.5725 32.9316 21.866 36.8866 22.0105 40.9186L22.027 41.3791C22.077 42.7791 23.2135 43.4661 24.615 43.4661C26.0165 43.4661 27.1535 42.7796 27.2035 41.3791C27.3535 37.1876 28.7235 33.1221 31.165 29.6226C31.9768 28.4543 32.4534 27.0861 32.543 25.6663C32.6327 24.2465 32.332 22.8292 31.6736 21.568C31.0152 20.3069 30.0242 19.25 28.8079 18.512C27.5917 17.7739 26.1967 17.3828 24.774 17.3811Z" fill="currentColor"/>
<path d="M24.637 38.678C22.395 38.678 20.8755 37.8305 20.7815 37.778C20.6157 37.6836 20.4942 37.5273 20.4438 37.3434C20.3933 37.1595 20.4179 36.963 20.5122 36.7972C20.6066 36.6315 20.7629 36.51 20.9469 36.4595C21.1308 36.409 21.3272 36.4336 21.493 36.528C21.611 36.5945 24.4015 38.12 27.922 36.5005C28.0952 36.4209 28.2929 36.4134 28.4716 36.4796C28.6503 36.5458 28.7954 36.6803 28.875 36.8535C28.9545 37.0267 28.9621 37.2244 28.8959 37.4031C28.8297 37.5818 28.6952 37.7269 28.522 37.8065C27.1 38.459 25.776 38.678 24.637 38.678Z" fill="currentColor"/>
<path d="M24.7645 13.716C24.5743 13.7161 24.3918 13.6408 24.257 13.5066C24.1222 13.3724 24.0462 13.1902 24.0455 13V8.068C24.0504 7.88066 24.1283 7.70265 24.2626 7.57189C24.3968 7.44113 24.5768 7.36796 24.7643 7.36796C24.9517 7.36796 25.1317 7.44113 25.2659 7.57189C25.4002 7.70265 25.4781 7.88066 25.483 8.068V13C25.4823 13.1901 25.4063 13.3722 25.2717 13.5064C25.137 13.6406 24.9546 13.716 24.7645 13.716Z" fill="currentColor"/>
<path d="M16.9375 16.5651C16.8327 16.565 16.7291 16.542 16.6341 16.4977C16.5391 16.4534 16.4549 16.3889 16.3875 16.3086L13.2185 12.5326C13.1058 12.3856 13.0541 12.2009 13.0743 12.0168C13.0944 11.8327 13.1848 11.6635 13.3266 11.5444C13.4683 11.4253 13.6506 11.3655 13.8354 11.3775C14.0202 11.3894 14.1932 11.4722 14.3185 11.6086L17.487 15.3846C17.5749 15.4893 17.6312 15.617 17.6491 15.7526C17.667 15.8881 17.6458 16.026 17.588 16.15C17.5303 16.274 17.4383 16.3789 17.323 16.4524C17.2077 16.5259 17.0738 16.565 16.937 16.5651H16.9375Z" fill="currentColor"/>
<path d="M12.7725 23.7795C12.7304 23.7793 12.6885 23.7756 12.647 23.7685L7.7925 22.912C7.69955 22.8956 7.61075 22.861 7.53117 22.8103C7.45158 22.7596 7.38277 22.6936 7.32865 22.6163C7.27454 22.539 7.23619 22.4518 7.21578 22.3596C7.19538 22.2675 7.19333 22.1722 7.20975 22.0792C7.22616 21.9863 7.26072 21.8975 7.31145 21.8179C7.36219 21.7383 7.4281 21.6695 7.50543 21.6154C7.58276 21.5613 7.66999 21.5229 7.76214 21.5025C7.85429 21.4821 7.94955 21.4801 8.0425 21.4965L12.897 22.353C13.0744 22.3837 13.2339 22.4798 13.3438 22.6225C13.4537 22.7651 13.506 22.9438 13.4904 23.1232C13.4748 23.3026 13.3924 23.4696 13.2596 23.5911C13.1267 23.7127 12.9531 23.7799 12.773 23.7795H12.7725Z" fill="currentColor"/>
<path d="M9.95001 34.4501C9.79174 34.4502 9.63788 34.398 9.51229 34.3017C9.3867 34.2054 9.29639 34.0703 9.25537 33.9175C9.21435 33.7646 9.22492 33.6025 9.28542 33.4563C9.34592 33.31 9.45298 33.1878 9.59001 33.1086L13.859 30.6441C14.024 30.5488 14.2202 30.523 14.4042 30.5723C14.5883 30.6217 14.7452 30.7421 14.8405 30.9071C14.9358 31.0721 14.9616 31.2683 14.9123 31.4523C14.863 31.6364 14.7425 31.7933 14.5775 31.8886L10.309 34.3501C10.2003 34.4146 10.0764 34.4491 9.95001 34.4501Z" fill="currentColor"/>
<path d="M39.579 34.45C39.4531 34.4501 39.3294 34.4168 39.2205 34.3535L34.95 31.886C34.8683 31.8388 34.7967 31.7759 34.7393 31.7011C34.6818 31.6262 34.6397 31.5407 34.6153 31.4495C34.5909 31.3584 34.5847 31.2633 34.5971 31.1697C34.6094 31.0762 34.6401 30.986 34.6873 30.9043C34.7345 30.8225 34.7973 30.7509 34.8722 30.6935C34.9471 30.6361 35.0326 30.5939 35.1237 30.5695C35.2149 30.5451 35.31 30.5389 35.4035 30.5513C35.4971 30.5636 35.5873 30.5943 35.669 30.6415L39.938 33.106C40.075 33.1852 40.1821 33.3074 40.2426 33.4536C40.3031 33.5999 40.3137 33.762 40.2726 33.9149C40.2316 34.0677 40.1413 34.2028 40.0157 34.2991C39.8901 34.3954 39.7363 34.4475 39.578 34.4475L39.579 34.45Z" fill="currentColor"/>
<path d="M36.7565 23.7795C36.5764 23.7799 36.4028 23.7127 36.2699 23.5911C36.1371 23.4696 36.0547 23.3026 36.0391 23.1232C36.0235 22.9438 36.0758 22.7651 36.1857 22.6225C36.2956 22.4798 36.4551 22.3837 36.6325 22.353L41.4865 21.4965C41.5794 21.4801 41.6747 21.4821 41.7668 21.5025C41.859 21.5229 41.9462 21.5613 42.0235 21.6154C42.1009 21.6695 42.1668 21.7383 42.2175 21.8179C42.2683 21.8975 42.3028 21.9863 42.3192 22.0792C42.3356 22.1722 42.3336 22.2675 42.3132 22.3596C42.2928 22.4518 42.2544 22.539 42.2003 22.6163C42.1462 22.6936 42.0774 22.7596 41.9978 22.8103C41.9182 22.861 41.8294 22.8956 41.7365 22.912L36.8825 23.7685C36.8409 23.7756 36.7987 23.7793 36.7565 23.7795Z" fill="currentColor"/>
<path d="M32.5915 16.565C32.4547 16.5649 32.3208 16.5259 32.2055 16.4523C32.0902 16.3788 31.9982 16.2739 31.9405 16.1499C31.8827 16.026 31.8615 15.8881 31.8794 15.7525C31.8973 15.6169 31.9536 15.4892 32.0415 15.3845L35.21 11.6085C35.334 11.4678 35.5082 11.3812 35.6952 11.3672C35.8823 11.3532 36.0674 11.4129 36.211 11.5336C36.3546 11.6542 36.4454 11.8262 36.4639 12.0129C36.4824 12.1995 36.4271 12.386 36.31 12.5325L33.142 16.3085C33.0745 16.3888 32.9902 16.4533 32.8951 16.4976C32.8 16.5419 32.6964 16.5649 32.5915 16.565Z" fill="currentColor"/>
</svg>
