<svg width="96" height="111" viewBox="0 0 96 111" fill="none" xmlns="http://www.w3.org/2000/svg">
<path d="M1.29999 11.9596H94.3V20.9798C94.3 21.5321 93.8523 21.9798 93.3 21.9798H2.29999C1.7477 21.9798 1.29999 21.5321 1.29999 20.9798V11.9596Z" fill="#FAEFE8" stroke="#595959" stroke-width="2"/>
<path d="M5.68384 21.9798H89.9162V107.97C89.9162 109.074 89.0207 109.97 87.9162 109.97H7.68383C6.57926 109.97 5.68384 109.074 5.68384 107.97V21.9798Z" fill="#F8DCCC" stroke="#595959" stroke-width="2"/>
<path d="M3.34018 1.77604C3.44455 1.32187 3.84878 1 4.31478 1H91.1852C91.6512 1 92.0554 1.32187 92.1598 1.77604L94.2187 10.7356C94.3627 11.362 93.8868 11.9596 93.2441 11.9596H2.25587C1.61316 11.9596 1.13732 11.362 1.28127 10.7356L3.34018 1.77604Z" fill="white" stroke="#595959" stroke-width="2"/>
<!-- <path d="M41.3815 87V59.784H37.0135C36.4255 62.64 33.7375 64.824 29.8315 64.908V68.352H36.4255V87H41.3815ZM53.0096 74.652C53.4296 74.442 54.2696 74.19 55.5716 74.19C57.8816 74.19 60.4016 75.534 60.4016 78.684C60.4016 81.162 58.5536 83.304 55.2356 83.304C52.2116 83.304 49.9436 81.162 49.8176 78.012L44.9036 79.02C45.2396 83.556 48.9776 87.63 55.2776 87.63C61.7456 87.63 65.4836 83.388 65.4836 78.726C65.4836 73.476 61.4096 70.536 57.3356 70.452L64.7276 63.984V59.784H45.8276V64.194H58.2176L50.6996 70.914L53.0096 74.652Z" fill="#595959"/> -->
<circle cx="47.3" cy="38" r="5" fill="white" stroke="#595959" stroke-width="2"/>
<path d="M47.3 37V39" stroke="#595959" stroke-width="2" stroke-linecap="round"/>
<rect x="10.8" y="27" width="74" height="78" rx="0.5" stroke="#595959"/>
</svg>
