<svg width="130" height="103" viewBox="0 0 130 103" fill="none" xmlns="http://www.w3.org/2000/svg">
<path d="M94.0256 38.1705C94.7991 38.5572 95.2878 39.3478 95.2878 40.2127V77.8194C95.2878 78.6842 94.7991 79.4748 94.0256 79.8616L52.7699 100.489C52.1272 100.811 51.3706 100.811 50.7278 100.489L3.25225 76.7517C2.47873 76.3649 1.99011 75.5743 1.99011 74.7095V37.1027C1.99011 36.2379 2.47873 35.4473 3.25225 35.0606L44.5079 14.4327C45.1507 14.1113 45.9073 14.1113 46.5501 14.4327L94.0256 38.1705Z" fill="white" stroke="#595959" stroke-width="3" stroke-miterlimit="10" stroke-linecap="square" stroke-linejoin="round"/>
<path d="M52.8 98.9262L52.8 61.2L93.8 40.7L93.7 78.25L52.8 98.9262Z" fill="#EFEFEF"/>
<path fill-rule="evenodd" clip-rule="evenodd" d="M65.699 53.1961L19.5 28.5L33.5292 21.5965L80.6266 46.0877L65.699 53.1961Z" fill="#FED5C6"/>
<path fill-rule="evenodd" clip-rule="evenodd" d="M80.6267 46.9392V53.9069L65.6991 61.7262V54.6178L80.6267 46.9392Z" fill="#FFAA8A"/>
<path d="M25.2243 24.0761L73.9443 49.4717" stroke="#595959" stroke-width="2" stroke-miterlimit="10"/>
<path d="M95.2878 38.8016L51.7489 60.571L1.99011 35.6917" stroke="#595959" stroke-width="2" stroke-miterlimit="10"/>
<path d="M51.7487 60.571V101" stroke="#595959" stroke-width="2" stroke-miterlimit="10"/>
<g clip-path="url(#clip0_280_643)">
<path d="M114.592 26.0232L103.817 15.2473L116.914 3.40328C117.742 2.65321 118.827 2.24999 119.943 2.277C121.06 2.30401 122.124 2.7592 122.914 3.54841L126.293 6.92703C127.082 7.71754 127.537 8.78115 127.564 9.89786C127.591 11.0146 127.188 12.0989 126.438 12.9267L114.592 26.0232Z" fill="#FF7B4A" stroke="#595959" stroke-width="2" stroke-linecap="round" stroke-linejoin="round"/>
<path d="M103.817 15.2473L101.849 17.2168C101.524 17.5404 101.31 17.9584 101.236 18.4111C101.163 18.8638 101.235 19.3281 101.441 19.7377C101.701 20.2577 101.836 20.8311 101.836 21.4125C101.836 21.9938 101.701 22.5672 101.441 23.0872L100.738 24.4907L105.356 29.1087L106.761 28.4063C107.281 28.1464 107.854 28.0112 108.435 28.0112C109.016 28.0112 109.59 28.1464 110.109 28.4063C110.518 28.6104 110.98 28.6809 111.431 28.6077C111.882 28.5345 112.299 28.3214 112.622 27.9984L114.592 26.0232L103.817 15.2473Z" fill="white" stroke="#595959" stroke-width="2" stroke-linecap="round" stroke-linejoin="round"/>
<path d="M101.239 25.1558L95.9675 30.4284H102.498L104.504 28.4212" fill="#FF7B4A"/>
<path d="M101.239 25.1558L95.9675 30.4284H102.498L104.504 28.4212L101.239 25.1558Z" stroke="#595959" stroke-width="2" stroke-linecap="round" stroke-linejoin="round"/>
</g>
<path d="M61.8755 26.7541C61.2237 26.5759 60.2804 26.4868 59.0283 26.4768C58.2051 26.4768 57.6562 26.4768 57.3818 26.5165C57.0902 26.5462 56.8329 26.6353 56.61 26.764C56.1297 27.0412 56.0954 27.3383 56.4899 27.6848C56.5071 27.7145 56.5757 27.7541 56.6786 27.8136C56.9187 27.9522 57.2789 28.0215 57.7591 28.0215L58.2908 28.0314L57.4847 28.4373C56.6957 28.8532 55.821 29.2988 54.8948 29.7938C53.1969 30.6751 52.2707 31.1702 52.0992 31.2692C51.7047 31.4969 51.4817 31.6652 51.4303 31.7939C51.3788 31.9029 51.3788 32.0217 51.4646 32.1702C51.5332 32.3286 51.6361 32.4276 51.7733 32.5069C51.8419 32.5465 52.0134 32.6059 52.3221 32.6653C52.648 32.7346 52.9567 32.7148 53.2312 32.6356C53.5056 32.5564 54.0201 32.2989 54.8434 31.8633C56.61 30.9028 58.3594 30.0315 60.0574 29.2691C60.6406 29.0116 61.0693 28.8037 61.3438 28.6453C61.7211 28.4274 61.9955 28.17 62.167 27.8928C62.2699 27.7145 62.3557 27.5066 62.4071 27.2987C62.4414 27.0808 62.4586 26.9521 62.4071 26.9224C62.3385 26.8828 62.1499 26.8333 61.8755 26.7541Z" fill="#FF7B4A"/>
<path d="M66.9984 29.3272C66.501 29.139 65.8836 28.9608 65.146 28.7925C64.7687 28.7133 64.4771 28.6836 64.2542 28.7133C64.0141 28.7331 63.7739 28.8321 63.5338 28.9707C63.2765 29.1192 63.1393 29.2381 63.1393 29.3569C63.0707 29.5945 63.1908 29.8024 63.5167 29.9906C63.7225 30.1094 63.9797 30.1985 64.2885 30.2579C65.0774 30.4361 65.6091 30.6045 65.9007 30.7728C66.2094 30.951 66.2952 31.0995 66.158 31.1787C66.0379 31.2481 65.7806 31.258 65.4376 31.2183C65.0946 31.1787 64.7001 31.0896 64.2713 30.9609C63.4995 30.7134 62.8649 30.7431 62.3161 31.0599C61.8015 31.357 61.9216 31.7827 62.6762 32.3768C63.1565 32.7729 63.4995 33.0699 63.6367 33.268C63.7739 33.466 63.7396 33.6244 63.5681 33.7234C63.4309 33.8026 63.1736 33.8719 62.8649 33.9314C61.8015 34.1294 61.1669 34.1789 60.944 34.07C60.9097 34.0502 60.8582 34.0403 60.8067 34.0106C60.7381 33.971 60.6524 33.9413 60.5666 33.8917C60.4637 33.8521 60.3951 33.8125 60.3437 33.7828C60.2579 33.7531 60.1893 33.7135 60.1035 33.664C59.7948 33.4858 59.7434 33.2977 60.0006 33.1095C60.1893 32.9412 60.2579 32.763 60.2236 32.5848C60.1721 32.3966 60.0521 32.2283 59.8291 32.0996C59.5204 31.9214 59.1431 31.8619 58.7314 31.9016C58.4399 31.9313 58.2169 32.0006 58.0111 32.1194C57.9425 32.159 57.8396 32.2184 57.7195 32.3273C57.0334 32.9214 56.9134 33.5254 57.3936 34.1195C57.5651 34.3373 57.8567 34.5452 58.2512 34.773C58.9715 35.1888 59.6233 35.4463 60.1721 35.5255C61.0297 35.6641 61.9559 35.6641 62.985 35.5453C64.0141 35.4265 64.8545 35.1789 65.4719 34.8225C66.2609 34.367 66.5182 33.8026 66.2609 33.1392L66.1237 32.8026L66.6554 32.6937C67.1699 32.5947 67.6158 32.4362 68.0103 32.2085C68.3877 31.9907 68.6621 31.7332 68.7993 31.456C68.9708 31.0401 68.9022 30.6441 68.5592 30.2876C68.4048 30.1391 68.0961 29.9213 67.6158 29.644C67.41 29.5252 67.1871 29.4163 66.9984 29.3272Z" fill="#FF7B4A"/>
<path d="M73.532 33.099C73.0346 32.9109 72.4172 32.7327 71.6796 32.5643C71.3023 32.4851 71.0107 32.4554 70.7878 32.4851C70.5477 32.5049 70.3075 32.6039 70.0674 32.7426C69.8101 32.8911 69.6729 33.0099 69.6729 33.1287C69.6043 33.3664 69.7244 33.5743 70.0503 33.7624C70.2561 33.8812 70.5134 33.9703 70.8221 34.0298C71.611 34.208 72.1427 34.3763 72.4343 34.5446C72.743 34.7229 72.8288 34.8714 72.6916 34.9506C72.5715 35.0199 72.3142 35.0298 71.9712 34.9902C71.6282 34.9506 71.2337 34.8615 70.8049 34.7328C70.0331 34.4852 69.3985 34.5149 68.8497 34.8318C68.3351 35.1288 68.4552 35.5546 69.2098 36.1487C69.6901 36.5447 70.0331 36.8418 70.1703 37.0398C70.3075 37.2378 70.2732 37.3963 70.1017 37.4953C69.9645 37.5745 69.7072 37.6438 69.3985 37.7032C68.3351 37.9012 67.7005 37.9507 67.4776 37.8418C67.4433 37.822 67.3918 37.8121 67.3403 37.7824C67.2717 37.7428 67.186 37.7131 67.1002 37.6636C66.9973 37.624 66.9287 37.5844 66.8773 37.5547C66.7915 37.525 66.7229 37.4854 66.6371 37.4359C66.3284 37.2576 66.277 37.0695 66.5342 36.8814C66.7229 36.7131 66.7915 36.5348 66.7572 36.3566C66.7057 36.1685 66.5857 36.0001 66.3627 35.8714C66.054 35.6932 65.6767 35.6338 65.265 35.6734C64.9735 35.7031 64.7505 35.7724 64.5447 35.8912C64.4761 35.9308 64.3732 35.9902 64.2531 36.0992C63.567 36.6933 63.447 37.2972 63.9272 37.8913C64.0987 38.1092 64.3903 38.3171 64.7848 38.5448C65.5051 38.9607 66.1569 39.2181 66.7057 39.2973C67.5633 39.436 68.4895 39.436 69.5186 39.3171C70.5477 39.1983 71.3881 38.9508 72.0055 38.5943C72.7945 38.1389 73.0518 37.5745 72.7945 36.9111L72.6573 36.5744L73.189 36.4655C73.7035 36.3665 74.1494 36.2081 74.5439 35.9803C74.9213 35.7625 75.1957 35.5051 75.3329 35.2278C75.5044 34.812 75.4358 34.4159 75.0928 34.0595C74.9384 33.9109 74.6297 33.6931 74.1494 33.4159C73.9436 33.297 73.7207 33.1881 73.532 33.099Z" fill="#FF7B4A"/>
<path d="M78.8478 35.9698C78.299 35.8114 77.7845 35.8708 77.2699 36.1679C76.9612 36.3461 76.8583 36.5441 76.944 36.7718C76.9612 36.8808 77.0641 36.9996 77.2185 37.1085C77.3728 37.2174 77.8188 37.4947 78.5906 37.9402C79.654 38.5541 80.2028 38.8908 80.2886 38.9601C80.3057 39.0096 80.3229 39.0393 80.3057 39.0492C80.2371 39.0888 79.9112 39.1383 79.3624 39.2175C78.642 39.3165 77.1842 39.6037 74.9545 40.0591C72.7248 40.5146 71.5585 40.7918 71.4556 40.8513C71.164 41.0196 71.0268 41.2374 71.0783 41.5048C71.0954 41.6533 71.2155 41.782 71.4385 41.9107C71.7472 42.0889 72.0731 42.1583 72.4504 42.1385C72.8106 42.1087 73.8568 41.9206 75.5719 41.5642C77.7845 41.1186 79.3967 40.8216 80.4258 40.6829C81.5235 40.5245 82.2438 40.4057 82.5354 40.3364C82.6383 40.3166 82.8098 40.2374 83.0328 40.1086L83.2043 40.0096C83.4273 39.8611 83.5302 39.7027 83.5645 39.5245C83.5645 39.2472 83.3587 38.8908 82.9813 38.4749C82.7412 38.2373 82.038 37.7719 80.8717 37.0788L80.34 36.7718C79.4481 36.257 78.9508 35.9896 78.8478 35.9698Z" fill="#FF7B4A"/>
<defs>
<clipPath id="clip0_280_643">
<rect width="34.8311" height="34.8311" fill="white" transform="translate(95)"/>
</clipPath>
</defs>
</svg>
