<svg width="17" height="17" viewBox="0 0 17 17" fill="none" xmlns="http://www.w3.org/2000/svg">
<path d="M10.9134 10.1932L9.74026 11.6601C7.92235 10.592 6.40749 9.07717 5.33941 7.25926L6.80636 6.08609C6.97832 5.94848 7.09985 5.75778 7.15196 5.54379C7.20407 5.32979 7.18382 5.10457 7.09437 4.90331L5.75703 1.89164C5.66112 1.67583 5.49168 1.50109 5.27893 1.39858C5.06617 1.29607 4.82392 1.27245 4.59537 1.33193L2.04933 1.99149C1.81185 2.05375 1.60541 2.20085 1.46902 2.40499C1.33264 2.60913 1.27575 2.85615 1.30913 3.09938C1.75583 6.28072 3.22613 9.23015 5.49775 11.5018C7.76937 13.7734 10.7188 15.2437 13.9001 15.6904C14.1433 15.7239 14.3903 15.6671 14.5943 15.5307C14.7983 15.3943 14.9452 15.1877 15.0071 14.9502L15.6676 12.4051C15.7271 12.1766 15.7035 11.9343 15.6009 11.7216C15.4984 11.5088 15.3237 11.3394 15.1079 11.2435L12.0962 9.90611C11.895 9.81689 11.6699 9.79667 11.456 9.84858C11.2421 9.90049 11.0514 10.0216 10.9134 10.1932V10.1932Z" stroke="currentColor" stroke-width="2" stroke-linecap="round" stroke-linejoin="round"/>
</svg>
