<svg width="80" height="50" viewBox="0 0 80 50" fill="none" xmlns="http://www.w3.org/2000/svg">
<path d="M21.1615 43.554C20.1726 43.554 19.2059 43.2608 18.3837 42.7114C17.5614 42.162 16.9205 41.3811 16.5421 40.4674C16.1637 39.5538 16.0646 38.5485 16.2576 37.5786C16.4505 36.6087 16.9267 35.7177 17.626 35.0185C18.3252 34.3192 19.2161 33.843 20.186 33.6501C21.156 33.4572 22.1613 33.5562 23.0749 33.9346C23.9885 34.3131 24.7694 34.9539 25.3188 35.7762C25.8683 36.5984 26.1615 37.5651 26.1615 38.554C26.1596 39.8795 25.6323 41.1502 24.695 42.0875C23.7577 43.0248 22.487 43.5522 21.1615 43.554ZM21.1615 34.951C20.4495 34.951 19.7535 35.1622 19.1614 35.5577C18.5694 35.9533 18.108 36.5155 17.8355 37.1734C17.5631 37.8312 17.4918 38.555 17.6307 39.2533C17.7696 39.9517 18.1124 40.5931 18.6159 41.0966C19.1194 41.6001 19.7608 41.9429 20.4592 42.0819C21.1575 42.2208 21.8813 42.1495 22.5392 41.877C23.197 41.6045 23.7592 41.1431 24.1548 40.5511C24.5504 39.9591 24.7615 39.263 24.7615 38.551C24.7603 37.5965 24.3807 36.6814 23.7058 36.0064C23.031 35.3314 22.116 34.9515 21.1615 34.95V34.951Z" fill="currentColor"/>
<path d="M60.2255 43.554C59.2366 43.554 58.2699 43.2608 57.4476 42.7114C56.6254 42.162 55.9845 41.3811 55.6061 40.4674C55.2277 39.5538 55.1286 38.5485 55.3216 37.5786C55.5145 36.6087 55.9907 35.7177 56.69 35.0185C57.3892 34.3192 58.2801 33.843 59.25 33.6501C60.22 33.4572 61.2253 33.5562 62.1389 33.9346C63.0525 34.3131 63.8334 34.9539 64.3829 35.7762C64.9323 36.5984 65.2255 37.5651 65.2255 38.554C65.2235 39.8795 64.6961 41.1501 63.7588 42.0874C62.8216 43.0246 61.551 43.552 60.2255 43.554ZM60.2255 34.951C59.5135 34.951 58.8175 35.1622 58.2254 35.5577C57.6334 35.9533 57.172 36.5155 56.8995 37.1734C56.6271 37.8312 56.5558 38.555 56.6947 39.2533C56.8336 39.9517 57.1764 40.5931 57.6799 41.0966C58.1834 41.6001 58.8248 41.9429 59.5232 42.0819C60.2215 42.2208 60.9453 42.1495 61.6032 41.877C62.261 41.6045 62.8232 41.1431 63.2188 40.5511C63.6144 39.9591 63.8255 39.263 63.8255 38.551C63.8242 37.5966 63.4445 36.6815 62.7697 36.0065C62.0949 35.3315 61.18 34.9516 60.2255 34.95V34.951Z" fill="currentColor"/>
<path d="M67.753 39.2525H64.527C64.3413 39.2525 64.1633 39.1787 64.032 39.0475C63.9007 38.9162 63.827 38.7381 63.827 38.5525C63.827 37.5972 63.4475 36.6811 62.7721 36.0057C62.0966 35.3302 61.1805 34.9507 60.2252 34.9507C59.27 34.9507 58.3539 35.3302 57.6784 36.0057C57.003 36.6811 56.6235 37.5972 56.6235 38.5525C56.6235 38.7381 56.5497 38.9162 56.4185 39.0475C56.2872 39.1787 56.1091 39.2525 55.9235 39.2525H50.5465C50.3608 39.2525 50.1828 39.1787 50.0515 39.0475C49.9202 38.9162 49.8465 38.7381 49.8465 38.5525V10.592C49.8465 10.4063 49.9202 10.2283 50.0515 10.097C50.1828 9.96575 50.3608 9.892 50.5465 9.892H58.0835C58.5226 9.89324 58.9556 9.99532 59.349 10.1904C59.7424 10.3854 60.0857 10.6682 60.3525 11.017L70.022 23.7295C70.3981 24.2264 70.6022 24.8323 70.6035 25.4555V36.4C70.603 37.156 70.3025 37.8809 69.7681 38.4157C69.2337 38.9505 68.509 39.2514 67.753 39.2525ZM65.178 37.8525H67.753C68.1373 37.8517 68.5057 37.6987 68.7774 37.4269C69.0492 37.1552 69.2022 36.7868 69.203 36.4025V25.4555C69.2022 25.1383 69.0984 24.83 68.907 24.577L59.2385 11.8645C59.1027 11.687 58.9279 11.5431 58.7276 11.4438C58.5274 11.3446 58.307 11.2926 58.0835 11.292H51.2465V37.8525H55.2725C55.4381 36.6566 56.0308 35.561 56.9411 34.7681C57.8514 33.9751 59.018 33.5383 60.2252 33.5383C61.4325 33.5383 62.599 33.9751 63.5094 34.7681C64.4197 35.561 65.0124 36.6566 65.178 37.8525Z" fill="currentColor"/>
<path d="M69.904 25.4306H54.85C54.6643 25.4306 54.4863 25.3568 54.355 25.2256C54.2237 25.0943 54.15 24.9162 54.15 24.7306V14.8936C54.15 14.708 54.2237 14.5299 54.355 14.3986C54.4863 14.2674 54.6643 14.1936 54.85 14.1936H62.4235C62.5314 14.1937 62.6378 14.2186 62.7344 14.2666C62.831 14.3146 62.9152 14.3842 62.9805 14.4701L70.4625 24.3066C70.5415 24.4104 70.59 24.5342 70.6024 24.664C70.6148 24.7938 70.5907 24.9245 70.5328 25.0414C70.4748 25.1583 70.3854 25.2566 70.2746 25.3254C70.1638 25.3942 70.0359 25.4306 69.9055 25.4306H69.904ZM55.5485 24.0306H68.492L62.0745 15.5936H55.55L55.5485 24.0306Z" fill="currentColor"/>
<path d="M50.5465 39.2525H25.463C25.2774 39.2525 25.0993 39.1788 24.968 39.0475C24.8368 38.9162 24.763 38.7382 24.763 38.5525C24.763 37.5973 24.3836 36.6813 23.7082 36.0059C23.0327 35.3305 22.1167 34.951 21.1615 34.951C20.2063 34.951 19.2903 35.3305 18.6149 36.0059C17.9394 36.6813 17.56 37.5973 17.56 38.5525C17.56 38.7382 17.4863 38.9162 17.355 39.0475C17.2237 39.1788 17.0457 39.2525 16.86 39.2525H11.4825C11.2968 39.2525 11.1188 39.1788 10.9875 39.0475C10.8563 38.9162 10.7825 38.7382 10.7825 38.5525V6.29052C10.7825 6.10486 10.8563 5.92682 10.9875 5.79554C11.1188 5.66427 11.2968 5.59052 11.4825 5.59052H50.5465C50.7322 5.59052 50.9102 5.66427 51.0415 5.79554C51.1728 5.92682 51.2465 6.10486 51.2465 6.29052V38.5525C51.2465 38.7382 51.1728 38.9162 51.0415 39.0475C50.9102 39.1788 50.7322 39.2525 50.5465 39.2525ZM26.114 37.8525H49.8465V6.99051H12.1825V37.8525H16.2085C16.3741 36.6566 16.9668 35.5611 17.8771 34.7681C18.7875 33.9751 19.954 33.5383 21.1613 33.5383C22.3685 33.5383 23.5351 33.9751 24.4454 34.7681C25.3557 35.5611 25.9484 36.6566 26.114 37.8525Z" fill="currentColor"/>
<path d="M38.865 17.129C38.8304 17.0603 38.77 17.0081 38.697 16.9839C38.624 16.9596 38.5444 16.9652 38.4755 16.9995L37.962 17.257C37.4795 16.4355 36.5375 15.8635 35.488 15.8635H35.4735C34.236 15.8695 33.6695 16.457 33.256 16.886C33.183 16.9615 33.1145 17.0325 33.048 17.095C32.716 17.4165 32.4038 17.7578 32.113 18.117L26.9415 16.767C26.8911 16.7517 26.8375 16.7502 26.7863 16.7625C26.735 16.7749 26.688 16.8007 26.6501 16.8373C26.6122 16.8739 26.5847 16.9199 26.5706 16.9707C26.5564 17.0214 26.556 17.0751 26.5695 17.126L26.5785 17.161L27.5855 18.9725L23.8705 18.946H23.868C23.8096 18.9459 23.7524 18.9626 23.7032 18.9941C23.654 19.0256 23.6149 19.0706 23.5905 19.1237C23.5661 19.1768 23.5575 19.2357 23.5656 19.2936C23.5738 19.3514 23.5984 19.4057 23.6365 19.45L23.6465 19.4615L27.2805 22.886L23.21 26.62C23.1533 26.6721 23.1196 26.7445 23.1164 26.8214C23.1131 26.8983 23.1405 26.9733 23.1925 27.03C23.2446 27.0867 23.317 27.1204 23.3939 27.1237C23.4708 27.1269 23.5458 27.0996 23.6025 27.0475L28.1325 22.8925L24.566 19.5315L31.659 19.5815L32.3265 18.7815C32.3265 18.779 32.3295 18.776 32.3315 18.774L32.449 18.624C32.454 18.6175 32.98 17.9505 33.4435 17.5185C33.521 17.446 33.5935 17.3685 33.673 17.288C34.053 16.8945 34.4835 16.448 35.476 16.443H35.4875C36.684 16.443 37.705 17.361 37.7205 18.453C37.7425 20.007 36.574 20.6425 36.525 20.668L36.363 20.752L36.3685 20.9345C36.361 21.6838 36.2282 22.4266 35.9755 23.132C35.42 24.6915 34.385 25.76 32.8995 26.3085C31.2805 26.9055 29.795 26.877 28.483 26.2225C27.499 25.732 26.983 25.052 26.978 25.046L26.7915 24.796L25.0415 26.317C24.9834 26.3675 24.9478 26.4389 24.9424 26.5157C24.937 26.5924 24.9623 26.6682 25.0128 26.7263C25.0632 26.7843 25.1347 26.82 25.2114 26.8254C25.2882 26.8308 25.3639 26.8055 25.422 26.755L26.716 25.6305C27.143 26.0797 27.6444 26.4519 28.198 26.7305C28.9704 27.1179 29.8234 27.3173 30.6875 27.3125C31.397 27.3125 32.204 27.1855 33.101 26.8545C34.732 26.2545 35.915 25.0335 36.5225 23.3285C36.7787 22.6084 36.9229 21.8533 36.95 21.0895C37.342 20.8295 38.3255 20.0185 38.3035 18.4455C38.2999 18.2225 38.2645 18.0011 38.1985 17.788L38.7375 17.5185C38.8058 17.4835 38.8576 17.423 38.8815 17.35C38.9053 17.277 38.8994 17.1976 38.865 17.129ZM31.3885 19L28.396 18.9775H28.252L27.4275 17.494L31.712 18.612L31.3885 19Z" fill="currentColor"/>
<path d="M36.5435 18.0995C36.7548 18.0995 36.926 17.9283 36.926 17.717C36.926 17.5058 36.7548 17.3345 36.5435 17.3345C36.3323 17.3345 36.161 17.5058 36.161 17.717C36.161 17.9283 36.3323 18.0995 36.5435 18.0995Z" fill="currentColor"/>
</svg>
