<svg width="58" height="58" viewBox="0 0 58 58" fill="none" xmlns="http://www.w3.org/2000/svg">
<circle cx="29" cy="29" r="29" fill="#FAEFE8"/>
<path d="M33.3333 37V23H40.6667C41.7081 23.0753 42.6777 23.5588 43.3644 24.3454C44.0511 25.132 44.3993 26.1579 44.3333 27.2V35.6C44.3553 35.9474 44.2392 36.2895 44.0102 36.5517C43.7812 36.8139 43.4579 36.975 43.1107 37H40.3333" stroke="#B85A23" stroke-width="2" stroke-linecap="round" stroke-linejoin="round"/>
<path d="M38.3334 39C37.2288 39 36.3334 38.1046 36.3334 37C36.3334 35.8954 37.2288 35 38.3334 35C39.4379 35 40.3334 35.8954 40.3334 37C40.3334 38.1046 39.4379 39 38.3334 39Z" stroke="#B85A23" stroke-width="2" stroke-linecap="round" stroke-linejoin="round"/>
<path d="M22.3334 39C21.2288 39 20.3334 38.1046 20.3334 37C20.3334 35.8954 21.2288 35 22.3334 35C23.4379 35 24.3334 35.8954 24.3334 37C24.3334 38.1046 23.4379 39 22.3334 39Z" stroke="#B85A23" stroke-width="2" stroke-linecap="round" stroke-linejoin="round"/>
<path d="M44.3334 29H38.5C38.1954 29.0046 37.9015 28.8881 37.6827 28.6761C37.4639 28.4641 37.3383 28.1739 37.3334 27.8693V23" stroke="#B85A23" stroke-width="2" stroke-linecap="round" stroke-linejoin="round"/>
<path d="M36.3334 37H24.3334" stroke="#B85A23" stroke-width="2" stroke-linecap="round" stroke-linejoin="round"/>
<path d="M14.3334 31H33.3334V21C33.3334 20.4696 33.1227 19.9609 32.7476 19.5858C32.3725 19.2107 31.8638 19 31.3334 19H16.3334C15.8029 19 15.2942 19.2107 14.9192 19.5858C14.5441 19.9609 14.3334 20.4696 14.3334 21V31Z" stroke="#B85A23" stroke-width="2" stroke-linecap="round" stroke-linejoin="round"/>
<path d="M20.3334 37H16.3334C15.8029 37 15.2942 36.7893 14.9192 36.4142C14.5441 36.0391 14.3334 35.5304 14.3334 35V31" stroke="#B85A23" stroke-width="2" stroke-linecap="round" stroke-linejoin="round"/>
</svg>
