<svg width="81" height="20" fill="none" xmlns="http://www.w3.org/2000/svg"><path d="M21.243 7.088h8.185v1.539h-3.219v8.648h-1.77V8.627h-3.203V7.088h.007zM29.078 9.9h1.513v1.424h.028c.05-.202.143-.396.279-.582.135-.187.3-.367.492-.518.193-.158.407-.28.642-.381.236-.094.478-.144.72-.144.186 0 .322.007.393.014.072.008.143.022.222.03v1.566a5.177 5.177 0 00-.35-.05 2.938 2.938 0 00-.35-.021c-.27 0-.528.057-.77.165-.243.108-.45.273-.628.482a2.45 2.45 0 00-.428.79 3.376 3.376 0 00-.158 1.086v3.508h-1.612V9.9h.007zm11.703 7.376h-1.585v-1.028h-.028a2.21 2.21 0 01-.885.892 2.408 2.408 0 01-1.199.338c-.963 0-1.662-.238-2.09-.72-.429-.48-.643-1.207-.643-2.178V9.9h1.613v4.522c0 .647.121 1.107.371 1.373.243.266.592.403 1.035.403.342 0 .62-.05.849-.158.228-.108.414-.245.55-.424.142-.173.242-.389.306-.633s.093-.51.093-.798V9.907h1.613v7.368zm2.747-2.365c.05.475.228.805.535 1 .314.186.685.287 1.12.287.15 0 .321-.014.514-.036.193-.021.378-.072.542-.137.172-.064.307-.165.421-.294.107-.13.157-.295.15-.504a.697.697 0 00-.228-.51 1.607 1.607 0 00-.542-.323 5.423 5.423 0 00-.757-.209c-.285-.057-.57-.122-.863-.187-.3-.065-.593-.15-.87-.244a2.65 2.65 0 01-.75-.389 1.704 1.704 0 01-.528-.618c-.136-.251-.2-.56-.2-.934 0-.403.1-.734.293-1.007.192-.273.442-.489.735-.654.3-.165.628-.28.992-.352.364-.065.713-.1 1.041-.1.378 0 .742.042 1.085.121.342.08.656.209.935.396.278.18.506.417.692.704.185.288.3.64.35 1.05H46.51c-.079-.388-.25-.654-.529-.784a2.15 2.15 0 00-.956-.201c-.114 0-.25.007-.406.029-.157.021-.3.057-.443.107a.958.958 0 00-.35.23.558.558 0 00-.142.396c0 .201.071.36.207.482.135.122.314.223.535.309.221.079.47.15.756.208.286.058.578.122.878.187.293.065.578.151.863.245.286.093.536.222.757.388.221.165.4.366.535.61.136.245.207.554.207.914 0 .438-.1.805-.3 1.114-.2.302-.456.554-.77.74-.314.188-.671.331-1.056.418a5.26 5.26 0 01-1.15.129c-.463 0-.891-.05-1.284-.158a3.117 3.117 0 01-1.02-.475 2.349 2.349 0 01-.678-.798c-.164-.316-.25-.697-.264-1.135h1.627v-.015zM48.85 9.9h1.22V7.684h1.613V9.9h1.456v1.215h-1.456v3.94c0 .172.007.316.021.446.015.122.05.23.1.316a.46.46 0 00.236.194c.107.043.242.065.428.065.114 0 .228 0 .342-.007.114-.008.229-.022.343-.05v1.257c-.179.022-.357.036-.521.058a4.154 4.154 0 01-.52.029c-.43 0-.772-.043-1.029-.123a1.332 1.332 0 01-.606-.359 1.25 1.25 0 01-.3-.59 4.467 4.467 0 01-.092-.812v-4.35h-1.22V9.9h-.015zm5.43 0h1.527v.999h.029a2 2 0 01.949-.92c.407-.187.842-.28 1.32-.28.578 0 1.078.1 1.506.308.428.202.785.482 1.07.841.285.36.492.777.635 1.251.143.475.214.985.214 1.524 0 .496-.064.978-.192 1.438a3.861 3.861 0 01-.578 1.237c-.257.36-.586.64-.985.855-.4.216-.864.324-1.406.324-.235 0-.47-.022-.706-.065a3.092 3.092 0 01-.678-.209 2.444 2.444 0 01-.6-.366 2.267 2.267 0 01-.463-.518h-.029V20h-1.613V9.9zm5.638 3.695a3.7 3.7 0 00-.129-.971 2.626 2.626 0 00-.385-.834 1.97 1.97 0 00-.635-.582 1.77 1.77 0 00-.878-.223c-.678 0-1.192.237-1.534.712-.343.474-.514 1.107-.514 1.898 0 .373.043.718.136 1.035.092.316.22.59.406.82.179.23.393.41.643.539.25.136.542.2.87.2.371 0 .678-.078.935-.23.257-.15.464-.351.628-.589a2.46 2.46 0 00.357-.826c.064-.31.1-.626.1-.95zm2.847-6.507h1.612v1.539h-1.612V7.088zm0 2.811h1.612v7.376h-1.612V9.9zm3.054-2.81h1.613v10.186H65.82V7.088zm6.558 10.388c-.586 0-1.106-.101-1.563-.295a3.45 3.45 0 01-1.163-.805 3.51 3.51 0 01-.721-1.23c-.164-.474-.25-.999-.25-1.567 0-.56.086-1.078.25-1.553.164-.474.407-.884.72-1.229a3.284 3.284 0 011.164-.805 3.962 3.962 0 011.563-.295c.585 0 1.106.1 1.562.295a3.45 3.45 0 011.163.805c.314.345.557.755.721 1.23.164.474.25.991.25 1.552 0 .568-.086 1.093-.25 1.567a3.514 3.514 0 01-.72 1.23 3.286 3.286 0 01-1.164.805 3.963 3.963 0 01-1.563.295zm0-1.287c.356 0 .67-.08.934-.23.264-.151.478-.353.65-.597.17-.244.292-.525.378-.834.078-.309.121-.625.121-.949 0-.316-.043-.625-.121-.942a2.467 2.467 0 00-.378-.833 1.972 1.972 0 00-.65-.59 1.859 1.859 0 00-.934-.23c-.357 0-.671.079-.935.23-.264.15-.478.352-.65.59a2.612 2.612 0 00-.378.833 3.875 3.875 0 00-.121.942c0 .324.043.64.121.95.079.308.207.589.378.833.172.245.386.446.65.597.264.158.578.23.934.23zm4.167-6.29h1.22V7.684h1.613V9.9h1.455v1.215h-1.455v3.94c0 .172.007.316.021.446.014.122.05.23.1.316s.128.15.235.194c.108.043.243.065.429.065.114 0 .228 0 .342-.007.114-.008.228-.022.343-.05v1.257c-.179.022-.357.036-.521.058a4.154 4.154 0 01-.521.029c-.428 0-.77-.043-1.028-.123a1.332 1.332 0 01-.606-.359 1.252 1.252 0 01-.3-.59 4.475 4.475 0 01-.093-.812v-4.35h-1.22V9.9h-.014z" fill="#fff"/><path d="M19.36 7.088h-7.393L9.683 0l-2.29 7.088L0 7.081l5.987 4.386-2.29 7.08 5.986-4.377 5.98 4.378-2.284-7.081 5.98-4.379z" fill="#00B67A"/><path d="M13.893 13.07l-.514-1.603-3.696 2.703 4.21-1.1z" fill="#005128"/></svg>